<svg xmlns="http://www.w3.org/2000/svg" version="1.1" xmlns:xlink="http://www.w3.org/1999/xlink" xmlns:svgjs="http://svgjs.dev/svgjs" width="1000" height="1000" viewBox="0 0 1000 1000"><rect width="1000" height="1000" fill="#000000"></rect><g transform="matrix(0.7,0,0,0.7,149.57576400795756,282.1265587044535)"><svg viewBox="0 0 396 247" data-background-color="#ffffff" preserveAspectRatio="xMidYMid meet" height="623" width="1000" xmlns="http://www.w3.org/2000/svg" xmlns:xlink="http://www.w3.org/1999/xlink"><g id="tight-bounds" transform="matrix(1,0,0,1,0.2399963634335336,-0.09999999999999432)"><svg viewBox="0 0 395.52 247.2" height="247.2" width="395.52"><g><svg></svg></g><g><svg viewBox="0 0 395.52 247.2" height="247.2" width="395.52"><g><g><path xmlns="http://www.w3.org/2000/svg" d="M21.401 241.465c-6.49-3.282-11.413-7.347-14.768-12.197-3.391-4.813-5.269-9.59-5.633-14.33 0-4.558 1.331-9.535 3.993-14.931 2.625-5.36 5.761-9.954 9.407-13.783 0.223-0.234 0.443-0.461 0.659-0.68l9.97 0c1.385 10.243 2.819 18.073 4.302 23.487 1.531 5.761 4.084 10.137 7.657 13.127 3.537 3.026 8.86 4.54 15.971 4.539 9.845 0 17.283-2.552 22.315-7.657 4.995-5.105 7.493-12.033 7.493-20.783 0-4.714-0.714-8.951-2.142-12.713l30.281 0c-0.319 10.277-3.409 19.985-9.27 29.121-6.199 9.663-14.439 17.374-24.721 23.135-10.319 5.725-21.221 8.587-32.707 8.587-8.751 0-16.353-1.641-22.807-4.922zM59.139 59.335c9.189-5.469 20.164-8.204 32.926-8.204 10.756 0 19.197 2.097 25.323 6.29 1.824 1.256 3.376 2.668 4.653 4.235h-66.539c1.171-0.804 2.383-1.578 3.637-2.321zM138.007 240.371c0-2.552 0.693-4.922 2.079-7.11 1.349-2.188 3.482-4.558 6.399-7.111 2.917-2.917 5.014-5.196 6.29-6.836 1.276-1.641 2.425-4.011 3.445-7.11 0.984-3.099 2.206-7.839 3.665-14.221l2.584-12.439h24.763l-4.376 21.737c-0.182 0.547-0.784 2.498-1.805 5.852-0.984 3.391-2.206 5.725-3.664 7.001v0.547c3.464 1.276 6.746 1.914 9.844 1.914 2.735 0 5.159-0.51 7.275-1.531 2.078-0.984 3.482-1.477 4.211-1.477 1.458 0 2.188 0.912 2.188 2.735 0 1.641-1.094 4.011-3.282 7.11-4.011 5.469-7.475 9.207-10.392 11.212-2.917 2.005-6.199 3.008-9.844 3.008-2.552 0-5.652-0.729-9.298-2.187-4.375-1.458-8.022-2.188-10.939-2.188-4.193 0-8.022 0.729-11.486 2.188-3.464 1.458-5.469 2.188-6.016 2.187-1.094 0-1.641-1.094-1.641-3.281zM176.019 53.866c2.188 0 5.652 0.182 10.392 0.547 4.193 0.547 8.569 0.82 13.127 0.82 1.641 0 5.743-0.273 12.306-0.82 3.282-0.365 5.561-0.547 6.836-0.547-0.217 2.823-0.37 5.42-0.457 7.79l-68.669 0c7.055-5.194 15.877-7.791 26.465-7.79zM317.238 27.886c5.943-7.657 13.017-13.491 21.221-17.502 5.469-2.735 11.303-4.558 17.502-5.469 6.199-0.912 13.4-1.367 21.604-1.367 4.193 0 7.292-0.365 9.298-1.094 1.276-0.365 2.37-0.729 3.282-1.094 0.912-0.365 1.641-0.547 2.187-0.547 1.458 0 2.188 1.003 2.188 3.008 0 3.829-2.279 7.566-6.837 11.212-4.558 3.646-9.389 5.469-14.493 5.47-6.016 0.182-10.939 0.547-14.768 1.094-3.829 0.547-7.566 1.641-11.212 3.281-6.928 3.282-12.215 9.207-15.861 17.776-2.102 4.94-3.992 11.275-5.671 19.002l-28.171 0c7.265-14.88 13.842-26.137 19.731-33.77zM309.198 203.726c-0.182 3.464-0.857 6.6-2.024 9.407-1.203 2.844-2.625 4.995-4.266 6.454v0.274c3.646 1.823 7.292 2.735 10.939 2.734 2.552 0 5.159-0.51 7.821-1.531 2.625-0.984 4.303-1.477 5.032-1.477 0.729 0 1.221 0.182 1.477 0.547 0.292 0.365 0.438 1.094 0.437 2.188 0 2.37-1.094 4.74-3.281 7.11-7.292 9.48-14.403 14.22-21.331 14.22-2.552 0-6.107-0.638-10.665-1.914-0.547-0.182-2.279-0.638-5.196-1.367-2.917-0.729-5.834-1.094-8.751-1.094-3.829 0-7.42 0.729-10.775 2.188-3.391 1.458-5.451 2.188-6.18 2.187-1.276 0-1.914-1.094-1.914-3.281 0-4.922 2.917-9.663 8.751-14.221l4.922-3.828c2.188-1.641 3.701-2.972 4.54-3.993 0.802-0.984 1.294-2.571 1.477-4.758l0.546-5.743c0.755-8.213 1.449-15.641 2.083-22.284l28.468 0c-0.713 6.51-1.416 12.571-2.11 18.182zM246.301 204.273c-4.011 6.746-8.696 13.309-14.057 19.69-5.396 6.381-9.097 9.571-11.103 9.571-0.547 0-0.948-0.31-1.203-0.93-0.292-0.656-0.438-1.531-0.437-2.625-1.458-13.126-2.607-22.753-3.446-28.878-0.513-3.895-1.422-9.081-2.726-15.557l40.859 0c-2.947 6.542-5.576 12.785-7.887 18.729z" fill="#ed2647" fill-rule="nonzero" stroke="none" stroke-width="1" stroke-linecap="butt" stroke-linejoin="miter" stroke-miterlimit="10" stroke-dasharray="" stroke-dashoffset="0" font-family="none" font-weight="none" font-size="none" text-anchor="none" style="mix-blend-mode: normal" data-fill-palette-color="tertiary"></path></g></g><g transform="matrix(1,0,0,1,0,75.65027882441596)"><svg viewBox="0 0 395.52 95.89944235116806" height="95.89944235116806" width="395.52"><g><svg viewBox="0 0 395.52 95.89944235116806" height="95.89944235116806" width="395.52"><g><svg viewBox="0 0 395.52 95.89944235116806" height="95.89944235116806" width="395.52"><g><svg viewBox="0 0 395.52 95.89944235116806" height="95.89944235116806" width="395.52"><g><svg viewBox="0 0 395.52 95.89944235116806" height="95.89944235116806" width="395.52"><g><svg viewBox="0 0 395.52 95.89944235116806" height="95.89944235116806" width="395.52"><g transform="matrix(1,0,0,1,0,0)"><svg width="395.52" viewBox="0.10000000149011612 -44.400001525878906 265.3699951171875 64.35000610351562" height="95.89944235116806" data-palette-color="#ed2647"><path d="M8 0.5Q5.6 0.5 3.83-0.4 2.05-1.3 1.13-2.63 0.2-3.95 0.1-5.25L0.1-5.25Q0.1-6.5 0.83-7.98 1.55-9.45 2.55-10.5 3.55-11.55 4.1-11.55L4.1-11.55Q4.35-11.55 4.45-10.95L4.45-10.95Q4.85-7.9 5.28-6.33 5.7-4.75 6.68-3.93 7.65-3.1 9.6-3.1L9.6-3.1Q12.3-3.1 13.68-4.5 15.05-5.9 15.05-8.3L15.05-8.3Q15.05-9.9 14.45-11.1 13.85-12.3 12.3-14.25L12.3-14.25 7.55-19.85Q6.45-21.15 6.03-22.28 5.6-23.4 5.6-24.8L5.6-24.8Q5.6-27.4 6.9-29.8 8.2-32.2 10.73-33.7 13.25-35.2 16.75-35.2L16.75-35.2Q19.7-35.2 21.38-34.05 23.05-32.9 23.05-30.8L23.05-30.8Q23.05-29.95 22.8-29.13 22.55-28.3 22.15-27.65L22.15-27.65Q21.6-26.8 21.18-26.45 20.75-26.1 20.25-26.1L20.25-26.1Q19.7-26.1 19.5-26.58 19.3-27.05 19.2-27.9L19.2-27.9Q19.05-29.8 18.18-30.83 17.3-31.85 15.15-31.85L15.15-31.85Q12.9-31.85 11.65-30.73 10.4-29.6 10.4-27.8L10.4-27.8Q10.4-26.75 10.8-25.88 11.2-25 12.05-24L12.05-24 16.85-18.5Q18.6-16.55 19.4-14.75 20.2-12.95 20.2-10.95L20.2-10.95Q20.2-7.95 18.5-5.3 16.8-2.65 13.98-1.07 11.15 0.5 8 0.5L8 0.5ZM23.95 0.5Q23.15 0.5 23.15 0L23.15 0Q23.15-0.25 23.52-1.25 23.9-2.25 24.15-3.6L24.15-3.6 27.25-22.9Q28.25-29.15 29.82-33.15 31.4-37.15 33.6-39.6L33.6-39.6Q35.45-41.6 37.1-42.28 38.75-42.95 41.3-43.35L41.3-43.35Q42.8-43.6 43.35-43.73 43.9-43.85 44.05-43.85L44.05-43.85Q44.45-43.85 44.45-43.3L44.45-43.3Q44.45-42.85 44.07-42.23 43.7-41.6 43.15-41.05L43.15-41.05Q42.7-40.6 42.22-40.48 41.75-40.35 40.75-40.3L40.75-40.3Q39.2-40.15 38.05-39.45 36.9-38.75 35.85-37.2L35.85-37.2Q34.55-35.1 33.75-31.78 32.95-28.45 31.8-21.25L31.8-21.25 30.45-12.85 30.5-12.85 31.65-14.7Q33.95-18.45 35.6-20.43 37.25-22.4 38.47-23.1 39.7-23.8 41.05-23.8L41.05-23.8Q42.6-23.8 43.5-23.08 44.4-22.35 44.4-21.1L44.4-21.1Q44.4-20.15 43.97-19.28 43.55-18.4 43-18.4L43-18.4Q42.8-18.4 42.35-18.7L42.35-18.7Q41.9-19.1 41.42-19.33 40.95-19.55 40.25-19.55L40.25-19.55Q38.95-19.55 37.95-18.8 36.95-18.05 35.65-16.25L35.65-16.25 33.25-12.85Q37.1-4.35 38.95-4.35L38.95-4.35Q39.95-4.35 41.7-6.8L41.7-6.8Q42-7.3 42.22-7.55 42.45-7.8 42.75-7.8L42.75-7.8Q43.2-7.8 43.2-7.05L43.2-7.05Q43.2-6.65 43.15-6.45L43.15-6.45Q43-5.05 42.05-3.4 41.1-1.75 39.82-0.63 38.55 0.5 37.4 0.5L37.4 0.5Q35.95 0.5 34.6-1.35 33.25-3.2 31.65-6.55L31.65-6.55 30.6-8.75Q29.8-7.5 29.6-7.05L29.6-7.05 28.95-3.6Q28.7-2.15 27.1-0.83 25.5 0.5 23.95 0.5L23.95 0.5ZM48.45 19.95Q46.25 19.95 44.7 18.85 43.15 17.75 42.4 16.13 41.65 14.5 41.65 12.9L41.65 12.9Q41.65 11.2 42.47 9.95 43.3 8.7 44.32 8.08 45.35 7.45 45.85 7.45L45.85 7.45Q46.05 7.45 46.15 7.6 46.25 7.75 46.25 8.25L46.25 8.25Q46.3 12.25 47.27 14 48.25 15.75 50.9 15.75L50.9 15.75Q54.95 15.75 56.85 11.65L56.85 11.65Q57.3 10.65 57.57 9.5 57.85 8.35 58.55 5.1L58.55 5.1 59.7-0.5 60.7-5.2 60.6-5.2Q58.7-2.5 56.95-1 55.2 0.5 53.85 0.5L53.85 0.5Q51.1 0.5 51.2-5.85L51.2-5.85 51.5-17.25Q51.55-18.5 51.37-18.95 51.2-19.4 50.7-19.4L50.7-19.4Q50.2-19.4 49.77-18.93 49.35-18.45 48.7-17.35L48.7-17.35Q48.2-16.55 48-16.28 47.8-16 47.5-16L47.5-16Q47.2-16 47.1-16.18 47-16.35 47-16.8L47-16.8Q47-18.2 47.97-19.88 48.95-21.55 50.47-22.68 52-23.8 53.55-23.8L53.55-23.8Q55.15-23.8 55.8-22.48 56.45-21.15 56.45-18.3L56.45-18.3Q56.45-17.05 56.4-16.35L56.4-16.35 56.15-10Q56.05-8 56.05-7.55L56.05-7.55Q56.05-6.15 56.25-5.65 56.45-5.15 56.85-5.15L56.85-5.15Q57.7-5.15 58.87-6.85 60.05-8.55 61.15-11.25 62.25-13.95 62.9-16.75L62.9-16.75 63.6-19.7Q63.95-21.25 65.57-22.53 67.2-23.8 68.8-23.8L68.8-23.8Q69.8-23.8 69.8-23.15L69.8-23.15Q69.8-22.95 69.59-22.53 69.4-22.1 69.2-21.5L69.2-21.5Q68.55-19.85 67.8-16.3L67.8-16.3 65.15-3.3 64.65-0.9Q63.7 3.75 63.15 5.9 62.6 8.05 61.77 9.83 60.95 11.6 59.45 13.5L59.45 13.5Q56.95 16.6 54.05 18.28 51.15 19.95 48.45 19.95L48.45 19.95ZM86.44 0Q86.14 0 86.14-0.6L86.14-0.6Q86.14-1.3 86.52-1.9 86.89-2.5 87.69-3.2L87.69-3.2Q88.49-4 88.84-4.45 89.19-4.9 89.47-5.75 89.74-6.6 90.14-8.35L90.14-8.35 94.69-30.25 94.39-30.25Q94.14-30.25 93.34-30.35L93.34-30.35Q92.34-30.55 91.24-30.55L91.24-30.55Q89.79-30.55 88.82-30.15 87.84-29.75 87.04-28.7L87.04-28.7Q86.79-28.35 86.54-28.13 86.29-27.9 86.09-27.9L86.09-27.9Q85.64-27.9 85.64-28.4L85.64-28.4Q85.64-28.9 85.74-29.2L85.74-29.2Q86.24-31.75 88.19-33.23 90.14-34.7 93.09-34.7L93.09-34.7Q93.69-34.7 94.99-34.6L94.99-34.6Q96.14-34.45 97.39-34.45L97.39-34.45Q97.84-34.45 99.64-34.6L99.64-34.6Q100.54-34.7 100.89-34.7L100.89-34.7Q100.79-33.4 100.79-32.45L100.79-32.45Q100.79-30.6 101.24-28.18 101.69-25.75 102.69-21.4L102.69-21.4 104.24-14.75Q104.59-13.75 104.69-13L104.69-13Q109.84-22.3 111.52-25.53 113.19-28.75 114.34-31.25L114.34-31.25Q114.94-32.45 115.29-33.25L115.29-33.25Q117.29-37.35 118.92-39.45 120.54-41.55 122.79-42.65L122.79-42.65Q124.29-43.4 125.99-43.65 127.69-43.9 129.94-43.9L129.94-43.9Q131.09-43.9 131.64-44.1L131.64-44.1Q131.99-44.2 132.24-44.3 132.49-44.4 132.64-44.4L132.64-44.4Q133.04-44.4 133.04-43.85L133.04-43.85Q133.04-42.8 131.79-41.8 130.54-40.8 129.14-40.8L129.14-40.8Q127.49-40.75 126.44-40.6 125.39-40.45 124.39-40L124.39-40Q122.49-39.1 121.49-36.75 120.49-34.4 119.84-29.75L119.84-29.75Q119.49-27.6 119.22-24.95 118.94-22.3 118.69-19.45L118.69-19.45Q118.04-12.15 117.44-7.3L117.44-7.3Q117.39-6.35 117.06-5.58 116.74-4.8 116.29-4.4L116.29-4.4 116.29-4.35Q117.29-3.85 118.29-3.85L118.29-3.85Q118.99-3.85 119.72-4.13 120.44-4.4 120.64-4.4L120.64-4.4Q120.84-4.4 120.92-4.3 120.99-4.2 120.99-3.9L120.99-3.9Q120.99-3.25 120.39-2.6L120.39-2.6Q118.39 0 116.49 0L116.49 0Q115.79 0 114.54-0.35L114.54-0.35Q114.39-0.4 113.59-0.6 112.79-0.8 111.99-0.8L111.99-0.8Q110.94-0.8 110.02-0.4 109.09 0 108.89 0L108.89 0Q108.54 0 108.54-0.6L108.54-0.6Q108.54-1.95 110.14-3.2L110.14-3.2 111.04-3.9Q111.64-4.35 111.87-4.63 112.09-4.9 112.14-5.5L112.14-5.5 112.24-6.55Q113.04-15.25 113.34-17.53 113.64-19.8 113.99-22.95L113.99-22.95 113.94-22.95Q111.84-19.6 109.59-15.2 107.34-10.8 105.94-7.2L105.94-7.2Q104.84-5.35 103.37-3.6 101.89-1.85 101.34-1.85L101.34-1.85Q101.19-1.85 101.12-2.02 101.04-2.2 101.04-2.5L101.04-2.5Q100.64-6.1 100.42-7.78 100.19-9.45 99.44-12.85L99.44-12.85Q99.09-14.35 98.42-17.25 97.74-20.15 97.44-21.75L97.44-21.75 97.39-21.8 94.34-6.65Q94.29-6.5 94.02-5.58 93.74-4.65 93.34-4.3L93.34-4.3 93.34-4.2Q94.29-3.85 95.14-3.85L95.14-3.85Q95.89-3.85 96.47-4.13 97.04-4.4 97.24-4.4L97.24-4.4Q97.64-4.4 97.64-3.9L97.64-3.9Q97.64-3.45 97.04-2.6L97.04-2.6Q95.94-1.1 95.14-0.55 94.34 0 93.34 0L93.34 0Q92.64 0 91.64-0.4L91.64-0.4Q90.44-0.8 89.64-0.8L89.64-0.8Q88.49-0.8 87.54-0.4 86.59 0 86.44 0L86.44 0ZM126.89 0.5Q125.34 0.5 124.46-1.05 123.59-2.6 123.59-5.2L123.59-5.2Q123.59-9.35 125.61-13.7 127.64-18.05 131.14-20.93 134.64-23.8 138.69-23.8L138.69-23.8Q139.99-23.8 141.26-23.5 142.54-23.2 143.34-22.75L143.34-22.75Q142.89-21.65 142.74-20.95 142.59-20.25 142.54-20.05L142.54-20.05Q142.19-18.25 141.51-14.58 140.84-10.9 140.24-7.55L140.24-7.55Q139.94-6.05 139.94-5.25L139.94-5.25Q139.94-4.7 140.11-4.45 140.29-4.2 140.64-4.2L140.64-4.2Q141.49-4.2 142.19-5.23 142.89-6.25 143.69-8.1L143.69-8.1Q143.79-8.4 143.94-8.6 144.09-8.8 144.34-8.8L144.34-8.8Q144.79-8.8 144.79-8.1L144.79-8.1Q144.79-7.75 144.74-7.55L144.74-7.55Q144.49-5.65 143.44-3.78 142.39-1.9 140.86-0.7 139.34 0.5 137.74 0.5L137.74 0.5Q136.44 0.5 135.71-0.45 134.99-1.4 134.99-3L134.99-3Q134.99-3.4 135.09-4.2L135.09-4.2 135.34-5.9 135.24-5.9Q133.39-3.1 131.01-1.3 128.64 0.5 126.89 0.5L126.89 0.5ZM129.74-4.45Q130.84-4.45 132.56-6.4 134.29-8.35 135.79-11.33 137.29-14.3 137.79-17.25L137.79-17.25 138.14-19.2Q136.89-19.95 135.84-19.95L135.84-19.95Q134.24-19.95 132.61-17.98 130.99-16 129.96-12.88 128.94-9.75 128.94-6.5L128.94-6.5Q128.94-5.3 129.11-4.88 129.29-4.45 129.74-4.45L129.74-4.45ZM149.19 0.5Q148.34 0.5 148.34-0.1L148.34-0.1Q148.34-0.35 148.71-1.23 149.09-2.1 149.44-3.95L149.44-3.95 150.29-8.75Q151.64-16.45 151.69-17.75L151.69-17.75 151.69-18.2Q151.69-19.05 151.24-19.05L151.24-19.05Q150.29-19.05 148.64-16L148.64-16Q148.44-15.6 148.19-15.28 147.94-14.95 147.69-14.95L147.69-14.95Q147.19-14.95 147.19-15.8L147.19-15.8Q147.19-17.1 148.36-19.03 149.54-20.95 151.26-22.38 152.99-23.8 154.59-23.8L154.59-23.8Q156.74-23.8 156.74-20.95L156.74-20.95Q156.74-20.35 156.34-16.75L156.34-16.75 156.39-16.75Q158.49-20.45 160.36-22.13 162.24-23.8 164.14-23.8L164.14-23.8Q165.44-23.8 166.24-23.05 167.04-22.3 167.04-20.9L167.04-20.9Q167.04-19.55 166.41-18.25 165.79-16.95 164.89-16.13 163.99-15.3 163.34-15.3L163.34-15.3Q162.94-15.3 163.09-15.8L163.09-15.8Q163.24-16.5 163.24-17.1L163.24-17.1Q163.24-18.4 162.09-18.4L162.09-18.4Q160.19-18.4 158.31-15.8 156.44-13.2 155.39-8.3L155.39-8.3Q154.64-5.2 154.39-3.45L154.39-3.45Q154.14-2.05 152.41-0.78 150.69 0.5 149.19 0.5L149.19 0.5ZM167.33 0.5Q166.53 0.5 166.53 0L166.53 0Q166.53-0.25 166.91-1.25 167.28-2.25 167.53-3.6L167.53-3.6 170.63-22.9Q171.63-29.15 173.21-33.15 174.78-37.15 176.98-39.6L176.98-39.6Q178.83-41.6 180.48-42.28 182.13-42.95 184.68-43.35L184.68-43.35Q186.18-43.6 186.73-43.73 187.28-43.85 187.43-43.85L187.43-43.85Q187.83-43.85 187.83-43.3L187.83-43.3Q187.83-42.85 187.46-42.23 187.08-41.6 186.53-41.05L186.53-41.05Q186.08-40.6 185.61-40.48 185.13-40.35 184.13-40.3L184.13-40.3Q182.58-40.15 181.43-39.45 180.28-38.75 179.23-37.2L179.23-37.2Q177.93-35.1 177.13-31.78 176.33-28.45 175.18-21.25L175.18-21.25 173.83-12.85 173.88-12.85 175.03-14.7Q177.33-18.45 178.98-20.43 180.63-22.4 181.86-23.1 183.08-23.8 184.43-23.8L184.43-23.8Q185.98-23.8 186.88-23.08 187.78-22.35 187.78-21.1L187.78-21.1Q187.78-20.15 187.36-19.28 186.93-18.4 186.38-18.4L186.38-18.4Q186.18-18.4 185.73-18.7L185.73-18.7Q185.28-19.1 184.81-19.33 184.33-19.55 183.63-19.55L183.63-19.55Q182.33-19.55 181.33-18.8 180.33-18.05 179.03-16.25L179.03-16.25 176.63-12.85Q180.48-4.35 182.33-4.35L182.33-4.35Q183.33-4.35 185.08-6.8L185.08-6.8Q185.38-7.3 185.61-7.55 185.83-7.8 186.13-7.8L186.13-7.8Q186.58-7.8 186.58-7.05L186.58-7.05Q186.58-6.65 186.53-6.45L186.53-6.45Q186.38-5.05 185.43-3.4 184.48-1.75 183.21-0.63 181.93 0.5 180.78 0.5L180.78 0.5Q179.33 0.5 177.98-1.35 176.63-3.2 175.03-6.55L175.03-6.55 173.98-8.75Q173.18-7.5 172.98-7.05L172.98-7.05 172.33-3.6Q172.08-2.15 170.48-0.83 168.88 0.5 167.33 0.5L167.33 0.5ZM195.53 0.5Q193.88 0.5 193.08-0.55 192.28-1.6 192.28-3.9L192.28-3.9Q192.28-5.35 192.68-7.75L192.68-7.75 194.73-19.45 190.68-19.45Q190.13-19.45 189.91-19.58 189.68-19.7 189.68-19.95L189.68-19.95Q189.68-20.4 190.33-21.2 190.98-22 191.81-22.65 192.63-23.3 193.18-23.3L193.18-23.3 195.48-23.3 195.88-25.9Q196.23-27.75 197.96-29.2 199.68-30.65 201.33-30.65L201.33-30.65Q201.73-30.65 201.98-30.5 202.23-30.35 202.23-30.05L202.23-30.05Q202.23-29.85 201.73-28.98 201.23-28.1 200.98-26.55L200.98-26.55 200.43-23.3 204.68-23.3Q205.28-23.3 205.48-23.23 205.68-23.15 205.68-22.9L205.68-22.9Q205.68-22.4 204.98-21.58 204.28-20.75 203.38-20.1 202.48-19.45 202.03-19.45L202.03-19.45 199.78-19.45 197.78-7.55Q197.43-5.8 197.43-4.85L197.43-4.85Q197.43-4.15 197.66-3.88 197.88-3.6 198.33-3.6L198.33-3.6Q199.98-3.6 201.43-6.3L201.43-6.3Q201.58-6.65 201.73-6.83 201.88-7 202.08-7L202.08-7Q202.58-7 202.58-6.15L202.58-6.15Q202.58-4.85 201.58-3.28 200.58-1.7 198.96-0.6 197.33 0.5 195.53 0.5L195.53 0.5ZM212.58-25.5Q212.23-25.5 212.13-25.63 212.03-25.75 212.08-26.1L212.08-26.1 212.78-30.05Q213.08-31.65 214.18-32.63 215.28-33.6 217.33-33.6L217.33-33.6 217.73-33.6Q218.28-33.6 218.23-33.05L218.23-33.05 217.53-29.1Q216.93-25.5 212.93-25.5L212.93-25.5 212.58-25.5ZM210.48 0.5Q208.03 0.5 208.03-2.8L208.03-2.8Q208.03-3.7 208.28-5.2L208.28-5.2 210.68-17.3Q210.78-18.2 210.78-18.4L210.78-18.4Q210.78-19.1 210.33-19.1L210.33-19.1Q209.88-19.1 209.28-18.38 208.68-17.65 207.73-16L207.73-16Q207.68-15.9 207.5-15.58 207.33-15.25 207.18-15.1 207.03-14.95 206.88-14.95L206.88-14.95Q206.43-14.95 206.43-15.75L206.43-15.75Q206.43-17.15 207.63-19.07 208.83-21 210.63-22.4 212.43-23.8 214.13-23.8L214.13-23.8Q216.23-23.8 216.23-21L216.23-21Q216.23-20.2 215.88-18.25L215.88-18.25 213.38-5.35Q213.28-4.95 213.28-4.8L213.28-4.8Q213.28-4.2 213.83-4.2L213.83-4.2Q214.48-4.2 215.3-5.25 216.13-6.3 216.88-8.1L216.88-8.1Q217.13-8.8 217.48-8.8L217.48-8.8Q217.93-8.8 217.93-7.95L217.93-7.95Q217.93-6.2 216.78-4.23 215.63-2.25 213.9-0.88 212.18 0.5 210.48 0.5L210.48 0.5ZM222.68 0.5Q221.88 0.5 221.88-0.05L221.88-0.05Q221.88-0.25 222.13-1.1L222.13-1.1Q222.38-1.75 222.83-3.6L222.83-3.6Q223.18-5.05 223.83-8.85 224.48-12.65 225.03-16.25L225.03-16.25Q225.28-17.85 225.28-18.3L225.28-18.3Q225.28-19.05 224.83-19.05L224.83-19.05Q224.38-19.05 223.68-18.28 222.98-17.5 222.18-16L222.18-16Q221.98-15.6 221.73-15.28 221.48-14.95 221.23-14.95L221.23-14.95Q220.73-14.95 220.73-15.8L220.73-15.8Q220.73-17.15 221.9-19.07 223.08-21 224.8-22.4 226.53-23.8 228.13-23.8L228.13-23.8Q229.13-23.8 229.73-23.1 230.33-22.4 230.33-20.9L230.33-20.9Q230.33-18.95 229.93-16.45L229.93-16.45 229.98-16.45Q235.33-23.8 238.98-23.8L238.98-23.8Q241.53-23.8 241.53-20.25L241.53-20.25Q241.53-18.7 241.08-16.45L241.08-16.45Q239.88-10.6 239.43-8.18 238.98-5.75 238.98-5.25L238.98-5.25Q238.98-4.2 239.58-4.2L239.58-4.2Q240.98-4.2 242.43-8.1L242.43-8.1Q242.73-8.8 243.08-8.8L243.08-8.8Q243.68-8.8 243.58-7.55L243.58-7.55Q243.38-5.8 242.28-3.9 241.18-2 239.55-0.75 237.93 0.5 236.28 0.5L236.28 0.5Q233.83 0.5 233.83-2.8L233.83-2.8Q233.83-4.1 234.13-5.95 234.43-7.8 235.03-10.7L235.03-10.7Q235.43-12.65 235.75-14.6 236.08-16.55 236.13-17.75L236.13-17.75 236.13-18.15Q236.13-18.95 235.63-18.95L235.63-18.95Q234.78-18.95 233.28-17.18 231.78-15.4 230.45-12.75 229.13-10.1 228.63-7.65L228.63-7.65 227.83-3.6Q227.53-2.1 225.9-0.8 224.28 0.5 222.68 0.5L222.68 0.5ZM245.02 19.95Q242.82 19.95 241.27 18.88 239.72 17.8 238.95 16.18 238.17 14.55 238.17 12.95L238.17 12.95Q238.17 11.2 239.05 9.95 239.92 8.7 240.97 8.08 242.02 7.45 242.47 7.45L242.47 7.45Q242.72 7.45 242.72 7.95L242.72 7.95Q242.72 12.3 243.77 14.03 244.82 15.75 247.47 15.75L247.47 15.75Q249.57 15.75 250.92 14.73 252.27 13.7 253.32 11.65L253.32 11.65Q254.07 10.1 254.52 7.93 254.97 5.75 255.92-0.6L255.92-0.6Q256.32-3.1 256.65-4.28 256.97-5.45 257.07-5.9L257.07-5.9 256.97-5.9Q255.02-3.1 252.6-1.3 250.17 0.5 248.42 0.5L248.42 0.5Q246.92 0.5 246.07-1.03 245.22-2.55 245.22-5.1L245.22-5.1Q245.22-9.25 247.37-13.63 249.52-18 253.12-20.9 256.72-23.8 260.82-23.8L260.82-23.8Q262.12-23.8 263.37-23.5 264.62-23.2 265.47-22.75L265.47-22.75 264.67-20.05Q262.22-11.6 261.75-7.65 261.27-3.7 261.22-3.3L261.22-3.3Q260.47 2 259.82 4.93 259.17 7.85 258.3 9.73 257.42 11.6 255.92 13.5L255.92 13.5Q253.32 16.75 250.47 18.35 247.62 19.95 245.02 19.95L245.02 19.95ZM251.37-4.45Q252.47-4.45 254.17-6.4 255.87-8.35 257.37-11.33 258.87-14.3 259.37-17.25L259.37-17.25 259.72-19.2Q258.52-19.95 257.37-19.95L257.37-19.95Q255.77-19.95 254.2-17.98 252.62-16 251.6-12.88 250.57-9.75 250.57-6.5L250.57-6.5Q250.57-5.3 250.72-4.88 250.87-4.45 251.37-4.45L251.37-4.45Z" opacity="1" transform="matrix(1,0,0,1,0,0)" fill="#ffffff" class="undefined-text-0" data-fill-palette-color="primary" id="text-0"></path></svg></g></svg></g></svg></g></svg></g></svg></g></svg></g></svg></g></svg></g><defs></defs></svg><rect width="395.52" height="247.2" fill="none" stroke="none" visibility="hidden"></rect></g></svg></g></svg>